<?xml version="1.0" encoding="UTF-8"?>
<svg width="600" height="500" viewBox="0 0 600 500" fill="none" xmlns="http://www.w3.org/2000/svg">
    <!-- Background Elements -->
    <circle cx="400" cy="100" r="60" fill="#E9ECFF"/>
    <circle cx="500" cy="200" r="30" fill="#F0F4FF"/>
    <circle cx="100" cy="300" r="40" fill="#F0F4FF"/>
    
    <!-- Main Illustration Container -->
    <g transform="translate(50, 50)">
        <!-- Laptop Base -->
        <rect x="100" y="200" width="300" height="180" rx="10" fill="#F8FAFF"/>
        <rect x="120" y="220" width="260" height="140" rx="5" fill="#4361EE"/>
        
        <!-- Screen Content -->
        <rect x="130" y="230" width="240" height="120" rx="3" fill="#1A237E" fill-opacity="0.2"/>
        
        <!-- Code Lines -->
        <rect x="140" y="250" width="180" height="10" rx="5" fill="white"/>
        <rect x="140" y="270" width="150" height="10" rx="5" fill="white" fill-opacity="0.7"/>
        <rect x="140" y="290" width="200" height="10" rx="5" fill="white" fill-opacity="0.5"/>
        <rect x="140" y="310" width="170" height="10" rx="5" fill="white" fill-opacity="0.7"/>
        <rect x="140" y="330" width="190" height="10" rx="5" fill="white" fill-opacity="0.4"/>
        
        <!-- Laptop Stand -->
        <rect x="220" y="380" width="60" height="20" fill="#E0E7FF"/>
        <rect x="200" y="400" width="100" height="10" rx="5" fill="#E0E7FF"/>
        
        <!-- Floating Elements -->
        <!-- Cloud -->
        <g transform="translate(350, 100)">
            <path d="M40 30C40 13.4315 26.5685 0 10 0C4.47715 0 0 4.47715 0 10C0 15.5228 4.47715 20 10 20H40V30Z" fill="#4361EE" fill-opacity="0.8"/>
            <circle cx="10" cy="10" r="10" fill="#4361EE" fill-opacity="0.8"/>
            <circle cx="25" cy="10" r="10" fill="#4361EE" fill-opacity="0.8"/>
        </g>
        
        <!-- Shield -->
        <g transform="translate(50, 80)">
            <path d="M50 0L100 20V50C100 72.0914 77.6142 90 50 90C22.3858 90 0 72.0914 0 50V20L50 0Z" fill="#3F37C9" fill-opacity="0.8"/>
            <path d="M50 20L90 40V60C90 70 70 80 50 80C30 80 10 70 10 60V40L50 20Z" fill="white"/>
            <path d="M50 40L70 50V60L50 70L30 60V50L50 40Z" fill="#3F37C9"/>
        </g>
        
        <!-- AI/ML Symbol -->
        <g transform="translate(400, 250)">
            <circle cx="30" cy="30" r="30" fill="#3A56D4" fill-opacity="0.8"/>
            <path d="M30 15L40 35H20L30 15Z" fill="white"/>
            <path d="M30 45L20 25H40L30 45Z" fill="white"/>
        </g>
    </g>
    
    <!-- Animated Circles -->
    <circle cx="500" cy="400" r="5" fill="#4361EE" fill-opacity="0.6">
        <animate attributeName="r" values="5;8;5" dur="3s" repeatCount="indefinite"/>
        <animate attributeName="opacity" values="0.6;0.3;0.6" dur="3s" repeatCount="indefinite"/>
    </circle>
    
    <circle cx="80" cy="100" r="3" fill="#3F37C9" fill-opacity="0.6">
        <animate attributeName="r" values="3;6;3" dur="4s" repeatCount="indefinite"/>
        <animate attributeName="opacity" values="0.6;0.2;0.6" dur="4s" repeatCount="indefinite"/>
    </circle>
    
    <circle cx="550" cy="80" r="4" fill="#3A56D4" fill-opacity="0.6">
        <animate attributeName="r" values="4;7;4" dur="5s" repeatCount="indefinite"/>
        <animate attributeName="opacity" values="0.6;0.1;0.6" dur="5s" repeatCount="indefinite"/>
    </circle>
</svg>
